# xmcd
#
# Track frame offsets: 
#        151
#        15285
#        29152
#        48068
#        64541
#        86709
#        98970
#        117366
#        133657
#        151104
#        168934
#        188671
#        206254
#        227606
#        242777
#        260469
#        278623
#        291529
#        305230
#        317925
#
# Disc length: 4427 seconds
#
# Revision: 0
# Processed by: cddbd v1.5.1PL0 Copyright (c) Steve Scherf et al.
# Submitted via: ExactAudioCopy v0.95a3
#
DISCID=14114914
DTITLE=Various Artist - Союз International. Новогодняя Дискотека
DYEAR=1900
DGENRE=Pop
TTITLE0=Тату - Я Сошла С Ума
TTITLE1=Blumchen Feat E-Type - Es Ist Nie Vorbie
TTITLE2=Руки Вверх! - Думала
TTITLE3=Atb and Jork - The Field Of Love
TTITLE4=Иванушки International - Реви
TTITLE5=Spiller - Grovejet
TTITLE6=Гости Из Будущего - Так Важно
TTITLE7=Алсу and Iglesias - You're My #1 (NINO Radio Mix)
TTITLE8=Валерия - Не Обижай Меня
TTITLE9=Plasma - Sweetest Swurender
TTITLE10=Наталья Ветлицкая - Мальчики
TTITLE11=Atc - My Heart Beats Like A Drim
TTITLE12=Стрелки - Поверю В Любовь
TTITLE13=Britney Spears - Stronger
TTITLE14=Филипп Киркоров - Чили Ча Ча (Hot Latino Mix)
TTITLE15=Ricky Martin - She Bangs
TTITLE16=Жасмин - Они Не Я
TTITLE17=Dr. Macdoo - Makahula Dence
TTITLE18=Игорёк - Как Мне Жить
TTITLE19=Five and Queen - We Will Rock You
EXTD=
EXTT0=
EXTT1=
EXTT2=
EXTT3=
EXTT4=
EXTT5=
EXTT6=
EXTT7=
EXTT8=
EXTT9=
EXTT10=
EXTT11=
EXTT12=
EXTT13=
EXTT14=
EXTT15=
EXTT16=
EXTT17=
EXTT18=
EXTT19=
PLAYORDER=
